<svg width="194" height="61" viewBox="0 0 194 61" fill="none" xmlns="http://www.w3.org/2000/svg">
<path d="M95.976 46L90.936 46L79.524 28.756L79.524 46L74.484 46L74.484 20.836L79.524 20.836L90.936 38.116L90.936 20.836L95.976 20.836L95.976 46ZM120.217 35.596C120.217 36.316 120.169 36.964 120.073 37.54L105.493 37.54C105.613 38.98 106.117 40.108 107.005 40.924C107.893 41.74 108.985 42.148 110.281 42.148C112.153 42.148 113.485 41.344 114.277 39.736L119.713 39.736C119.137 41.656 118.033 43.24 116.401 44.488C114.769 45.712 112.765 46.324 110.389 46.324C108.469 46.324 106.741 45.904 105.205 45.064C103.693 44.2 102.505 42.988 101.641 41.428C100.801 39.868 100.381 38.068 100.381 36.028C100.381 33.964 100.801 32.152 101.641 30.592C102.481 29.032 103.657 27.832 105.169 26.992C106.681 26.152 108.421 25.732 110.389 25.732C112.285 25.732 113.977 26.14 115.465 26.956C116.977 27.772 118.141 28.936 118.957 30.448C119.797 31.936 120.217 33.652 120.217 35.596ZM114.997 34.156C114.973 32.86 114.505 31.828 113.593 31.06C112.681 30.268 111.565 29.872 110.245 29.872C108.997 29.872 107.941 30.256 107.077 31.024C106.237 31.768 105.721 32.812 105.529 34.156L114.997 34.156ZM133.471 46.324C131.551 46.324 129.823 45.904 128.287 45.064C126.751 44.2 125.539 42.988 124.651 41.428C123.787 39.868 123.355 38.068 123.355 36.028C123.355 33.988 123.799 32.188 124.687 30.628C125.599 29.068 126.835 27.868 128.395 27.028C129.955 26.164 131.695 25.732 133.615 25.732C135.535 25.732 137.275 26.164 138.835 27.028C140.395 27.868 141.619 29.068 142.507 30.628C143.419 32.188 143.875 33.988 143.875 36.028C143.875 38.068 143.407 39.868 142.471 41.428C141.559 42.988 140.311 44.2 138.727 45.064C137.167 45.904 135.415 46.324 133.471 46.324ZM133.471 41.932C134.383 41.932 135.235 41.716 136.027 41.284C136.843 40.828 137.491 40.156 137.971 39.268C138.451 38.38 138.691 37.3 138.691 36.028C138.691 34.132 138.187 32.68 137.179 31.672C136.195 30.64 134.983 30.124 133.543 30.124C132.103 30.124 130.891 30.64 129.907 31.672C128.947 32.68 128.467 34.132 128.467 36.028C128.467 37.924 128.935 39.388 129.871 40.42C130.831 41.428 132.031 41.932 133.471 41.932ZM159.344 25.768C161.72 25.768 163.64 26.524 165.104 28.036C166.568 29.524 167.3 31.612 167.3 34.3L167.3 46L162.26 46L162.26 34.984C162.26 33.4 161.864 32.188 161.072 31.348C160.28 30.484 159.2 30.052 157.832 30.052C156.44 30.052 155.336 30.484 154.52 31.348C153.728 32.188 153.332 33.4 153.332 34.984L153.332 46L148.292 46L148.292 26.056L153.332 26.056L153.332 28.54C154.004 27.676 154.856 27.004 155.888 26.524C156.944 26.02 158.096 25.768 159.344 25.768Z" fill="white"/>
<path d="M41.8152 33.8427C41.3094 36.0138 40.2416 37.9643 38.7764 39.527L50.6459 51.5785L54.9647 47.1936L41.8152 33.8427Z" fill="#52FF00"/>
<path d="M37.6388 1.605L31.7393 -8.33429e-07L26.7677 18.8386L22.2792 1.83098L16.3796 3.43599L21.2291 21.8114L9.15012 9.54752L4.83133 13.9325L18.0804 27.3846L1.58079 22.8958L5.66703e-07 28.8857L18.0279 33.7903C17.8215 32.8864 17.7123 31.9446 17.7123 30.9769C17.7123 24.1271 23.1813 18.5743 29.9277 18.5743C36.6741 18.5743 42.1432 24.1271 42.1432 30.9769C42.1432 31.9383 42.0353 32.8744 41.8315 33.7729L58.2155 38.2302L59.7962 32.2403L41.6966 27.3162L58.1974 22.8271L56.6165 16.8372L38.5176 21.761L50.5966 9.49717L46.2778 5.11222L33.2124 18.3777L37.6388 1.605Z" fill="#52FF00"/>
<path d="M38.6566 39.6531C37.1737 41.1909 35.2997 42.3385 33.1982 42.9298L37.5173 59.2958L43.4168 57.6907L38.6566 39.6531Z" fill="#52FF00"/>
<path d="M32.9779 42.9897C32.0029 43.2442 30.981 43.3794 29.9278 43.3794C28.7995 43.3794 27.7069 43.2241 26.6697 42.9333L22.3467 59.3142L28.2462 60.9191L32.9779 42.9897Z" fill="#52FF00"/>
<path d="M26.4611 42.8728C24.3917 42.2521 22.551 41.0899 21.0984 39.5477L9.19971 51.6287L13.5185 56.0137L26.4611 42.8728Z" fill="#52FF00"/>
<path d="M20.9991 39.4409C19.5714 37.889 18.5314 35.9646 18.0364 33.8269L1.59888 38.2989L3.17965 44.2887L20.9991 39.4409Z" fill="#52FF00"/>
</svg>
